<svg width="32" height="32" viewBox="0 0 32 32" fill="none" xmlns="http://www.w3.org/2000/svg">
<g clip-path="url(#clip0_1144_2793)">
<mask id="mask0_1144_2793" style="mask-type:luminance" maskUnits="userSpaceOnUse" x="0" y="0" width="32" height="32">
<path d="M32 0H0V32H32V0Z" fill="white"/>
</mask>
<g mask="url(#mask0_1144_2793)">
<path fill-rule="evenodd" clip-rule="evenodd" d="M31.8393 29.3506C31.8393 30.7529 30.7057 31.8887 29.2997 31.8887H2.7075C1.30791 31.8887 0.167969 30.7529 0.167969 29.3506V2.70656C0.167969 1.30429 1.30791 0.168457 2.7075 0.168457H29.2997C30.6993 0.168457 31.8393 1.30429 31.8393 2.70656V29.3506Z" fill="#FFE600"/>
<path fill-rule="evenodd" clip-rule="evenodd" d="M16.3542 5.22119C9.637 5.22119 4.18848 9.54355 4.18848 14.8796C4.18848 18.3095 6.44654 21.3187 9.83363 23.0337L8.68557 27.3369C8.64117 27.4644 8.67923 27.6111 8.77438 27.7067C8.83781 27.7704 8.9266 27.8088 9.02175 27.8088C9.09786 27.8088 9.16763 27.7768 9.23106 27.7258L14.1594 24.3789C14.8761 24.4808 15.6056 24.5382 16.3478 24.5382C23.0648 24.5382 28.5133 20.2159 28.5133 14.8796C28.5197 9.54355 23.0712 5.22119 16.3542 5.22119Z" fill="#381E1E"/>
<path fill-rule="evenodd" clip-rule="evenodd" d="M8.45014 13.3758H7.10651C6.92007 13.3758 6.76578 13.3307 6.63078 13.247C6.49576 13.1633 6.41862 13.0408 6.38647 12.8864C6.38004 12.8476 6.37362 12.7961 6.36719 12.7511C6.36719 12.558 6.43791 12.4033 6.57934 12.2939C6.72078 12.1844 6.89435 12.1265 7.10651 12.1265H11.2081C11.3945 12.1265 11.5552 12.1716 11.6839 12.2553C11.8189 12.339 11.9024 12.4549 11.9345 12.6159C11.9411 12.661 11.9474 12.706 11.9411 12.7511C11.9411 12.9507 11.8703 13.1053 11.7353 13.2148C11.6003 13.3243 11.4267 13.3758 11.2081 13.3758H9.8709V18.0059C9.8709 18.2248 9.80662 18.405 9.67803 18.5403C9.54946 18.6755 9.37587 18.74 9.1573 18.74C8.9773 18.74 8.82943 18.6885 8.70086 18.5918C8.57227 18.4887 8.49514 18.3601 8.46299 18.1861C8.45014 18.1217 8.45014 18.0638 8.45014 17.9995V13.3758Z" fill="#FFE600"/>
<path fill-rule="evenodd" clip-rule="evenodd" d="M12.326 12.5686C12.3831 12.4108 12.4657 12.2971 12.5801 12.2275C12.6945 12.1581 12.8343 12.1265 13.0124 12.1265H13.3491C13.5334 12.1265 13.6859 12.1644 13.8067 12.2339C13.9275 12.3033 14.029 12.4487 14.099 12.657L15.7957 17.5392C15.853 17.6908 15.891 17.8171 15.9101 17.9306C15.9229 18.0002 15.9356 18.0569 15.9356 18.1012C15.9356 18.278 15.8657 18.4296 15.7386 18.5497C15.6114 18.676 15.4526 18.7328 15.2746 18.7328C14.9505 18.7328 14.7409 18.6002 14.6455 18.3348L14.2833 17.2738H12.0209L11.6586 18.3348C11.5697 18.6002 11.3599 18.7328 11.0295 18.7328C10.8643 18.7328 10.7244 18.6949 10.6166 18.6065C10.5021 18.5243 10.4322 18.398 10.4004 18.2464C10.3877 18.2023 10.3877 18.1517 10.3877 18.1012C10.3877 18.0316 10.394 17.9434 10.4258 17.8423C10.4512 17.7411 10.483 17.6401 10.5212 17.5454L12.326 12.5686ZM13.1712 13.699H13.1521L12.326 16.2632H13.9655L13.1712 13.699Z" fill="#FFE600"/>
<path fill-rule="evenodd" clip-rule="evenodd" d="M16.0902 12.8418C16.0902 12.6284 16.1525 12.4527 16.2768 12.321C16.4013 12.1893 16.5693 12.1265 16.7809 12.1265C16.9552 12.1265 17.1045 12.1767 17.2227 12.2708C17.341 12.3649 17.422 12.4967 17.4529 12.6599C17.4655 12.7225 17.4717 12.7791 17.4655 12.8418V17.3595H19.7616C19.9484 17.3595 20.1039 17.397 20.2284 17.485C20.3529 17.5665 20.4338 17.6857 20.4586 17.8363C20.4712 17.8738 20.4774 17.9242 20.4774 17.968C20.4774 18.1625 20.4088 18.3131 20.272 18.4135C20.1351 18.5202 19.967 18.5704 19.7616 18.5704H16.893C16.6814 18.5704 16.5072 18.5265 16.3765 18.4385C16.2458 18.3508 16.1587 18.2127 16.1151 18.0119C16.0964 17.9304 16.0902 17.8363 16.084 17.7297L16.0902 12.8418Z" fill="#FFE600"/>
<path fill-rule="evenodd" clip-rule="evenodd" d="M20.6074 12.8465C20.6074 12.6317 20.6716 12.4549 20.7998 12.3223C20.9281 12.1896 21.1012 12.1265 21.3191 12.1265C21.4987 12.1265 21.6462 12.177 21.7743 12.2716C21.9027 12.3665 21.9796 12.499 22.0116 12.6634C22.0245 12.7264 22.0308 12.7833 22.0245 12.8465L22.0308 14.9622L24.2559 12.4423C24.3585 12.3348 24.4417 12.2592 24.5252 12.2023C24.6084 12.1517 24.7048 12.1265 24.82 12.1265C24.974 12.1265 25.1151 12.1708 25.2432 12.2528C25.3716 12.3348 25.4485 12.4487 25.4805 12.5938C25.4805 12.6001 25.487 12.6191 25.4934 12.6506C25.4934 12.6696 25.4934 12.6949 25.4997 12.7075C25.4997 12.8086 25.4741 12.897 25.4357 12.9728C25.3908 13.055 25.333 13.1306 25.2689 13.2065L23.8135 14.7727L25.5319 17.457L25.5832 17.5392C25.6986 17.7223 25.7691 17.855 25.7882 17.9434C25.7882 17.9496 25.7948 17.9687 25.8011 17.9875C25.8011 18.0128 25.8011 18.0254 25.8011 18.0316C25.8011 18.278 25.7306 18.4611 25.5895 18.5686C25.4485 18.676 25.2754 18.7328 25.0765 18.7328C24.9291 18.7328 24.8137 18.7075 24.7239 18.657C24.6342 18.6002 24.5379 18.5054 24.4483 18.3538L22.8131 15.7644L22.0374 16.5602L22.0437 18.0065C22.0437 18.2213 21.9796 18.398 21.8514 18.5307C21.7231 18.6632 21.55 18.7265 21.332 18.7265C21.1524 18.7265 20.9986 18.676 20.8767 18.5812C20.7549 18.4802 20.6716 18.3538 20.6394 18.1832C20.6267 18.1201 20.6267 18.0633 20.6267 18.0001L20.6074 12.8465Z" fill="#FFE600"/>
</g>
</g>
<defs>
<clipPath id="clip0_1144_2793">
<rect width="32" height="32" rx="5" fill="white"/>
</clipPath>
</defs>
</svg>
