<svg width="32" height="32" viewBox="0 0 32 32" fill="none" xmlns="http://www.w3.org/2000/svg">
<g clip-path="url(#clip0_1144_2804)">
<mask id="mask0_1144_2804" style="mask-type:luminance" maskUnits="userSpaceOnUse" x="0" y="0" width="32" height="32">
<path d="M32 0H0V32H32V0Z" fill="white"/>
</mask>
<g mask="url(#mask0_1144_2804)">
<path fill-rule="evenodd" clip-rule="evenodd" d="M32.006 29.3506C32.006 30.7529 30.8664 31.8887 29.453 31.8887H2.7209C1.31391 31.8887 0.167969 30.7529 0.167969 29.3506V2.70656C0.167969 1.30429 1.31391 0.168457 2.7209 0.168457H29.453C30.86 0.168457 32.006 1.30429 32.006 2.70656V29.3506Z" fill="url(#paint0_radial_1144_2804)"/>
<path fill-rule="evenodd" clip-rule="evenodd" d="M20.5927 4.04199H11.4134C7.34069 4.04199 4.04199 7.36393 4.04199 11.4653V20.7093C4.04199 24.8107 7.34069 28.1326 11.4134 28.1326H20.5927C24.6653 28.1326 27.9642 24.8107 27.9642 20.7093V11.4653C27.9642 7.36393 24.6653 4.04199 20.5927 4.04199ZM25.6678 19.8214C25.6678 23.1369 23.0033 25.82 19.7109 25.82H12.2889C8.99643 25.82 6.33201 23.1369 6.33201 19.8214V12.3532C6.33201 9.0441 8.99643 6.35458 12.2889 6.35458H19.7109C22.9969 6.35458 25.6678 9.0441 25.6678 12.3532V19.8214Z" fill="#F8F8F8"/>
<path fill-rule="evenodd" clip-rule="evenodd" d="M16.2715 9.76855C12.769 9.76855 9.93652 12.6075 9.93652 16.1035C9.93652 19.5995 12.7754 22.4384 16.2715 22.4384C19.7738 22.4384 22.6063 19.5995 22.6063 16.1035C22.6127 12.6011 19.7738 9.76855 16.2715 9.76855ZM16.2715 19.9185C14.1663 19.9185 12.4564 18.2088 12.4564 16.1035C12.4564 13.9983 14.1599 12.2885 16.2715 12.2885C18.3768 12.2885 20.0864 13.9919 20.0864 16.1035C20.0864 18.2088 18.3768 19.9185 16.2715 19.9185Z" fill="#F8F8F8"/>
<path fill-rule="evenodd" clip-rule="evenodd" d="M23.7789 9.70368C23.7789 10.5933 23.0557 11.3229 22.1597 11.3229C21.2701 11.3229 20.5469 10.5997 20.5469 9.70368C20.5469 8.81407 21.2701 8.08447 22.1597 8.08447C23.0557 8.09087 23.7789 8.81407 23.7789 9.70368Z" fill="#F8F8F8"/>
</g>
</g>
<defs>
<radialGradient id="paint0_radial_1144_2804" cx="0" cy="0" r="1" gradientUnits="userSpaceOnUse" gradientTransform="translate(0.167969 31.8888) scale(44.9426 44.9426)">
<stop stop-color="#FED378"/>
<stop offset="0.17" stop-color="#FED378"/>
<stop offset="0.42" stop-color="#DD5666"/>
<stop offset="0.61" stop-color="#CA3592"/>
<stop offset="1" stop-color="#8159A6"/>
</radialGradient>
<clipPath id="clip0_1144_2804">
<rect width="32" height="32" fill="white"/>
</clipPath>
</defs>
</svg>
