<svg width="32" height="32" viewBox="0 0 32 32" fill="none" xmlns="http://www.w3.org/2000/svg">
<g clip-path="url(#clip0_1144_2820)">
<mask id="mask0_1144_2820" style="mask-type:luminance" maskUnits="userSpaceOnUse" x="0" y="0" width="32" height="32">
<path d="M32 0H0V32H32V0Z" fill="white"/>
</mask>
<g mask="url(#mask0_1144_2820)">
<path fill-rule="evenodd" clip-rule="evenodd" d="M31.8393 29.1968C31.8393 30.5918 30.7057 31.7217 29.2997 31.7217H2.70753C1.3079 31.7217 0.167969 30.5918 0.167969 29.1968V2.69231C0.167969 1.29735 1.3079 0.16748 2.70753 0.16748H29.2997C30.6993 0.16748 31.8393 1.29735 31.8393 2.69231V29.1968Z" fill="#00C300"/>
<path fill-rule="evenodd" clip-rule="evenodd" d="M29.4998 17.1914C29.4998 19.5686 27.5783 21.4958 25.213 21.4958H6.63253C4.26085 21.4958 2.3457 19.5686 2.3457 17.1914V6.98507C2.3457 4.60782 4.26721 2.68066 6.63253 2.68066H25.2066C27.5719 2.68066 29.4934 4.60782 29.4934 6.98507V17.1914H29.4998Z" fill="#F8F8F8"/>
<path fill-rule="evenodd" clip-rule="evenodd" d="M19.2861 20.6817L16.5098 20.51V20.4399L15.9289 20.4781L15.3417 20.4399V20.5163L12.5654 20.6881L15.2206 24.9953C15.2206 24.9953 15.2461 25.0399 15.2908 25.097C15.4185 25.3135 15.6545 25.4661 15.9289 25.4661C16.2034 25.4661 16.4332 25.3199 16.5673 25.1034C16.6247 25.0399 16.6438 24.9953 16.6438 24.9953L19.2861 20.6817Z" fill="#F8F8F8"/>
<path fill-rule="evenodd" clip-rule="evenodd" d="M8.42043 10.0553C8.42043 10.0553 7.68242 10.0553 7.01394 10.7178V8.04199H5.36133V15.0661H7.0327V14.5194C7.0327 14.5194 7.4239 15.2462 8.42043 15.2462C8.42043 15.2462 10.7479 15.156 10.7479 12.6218C10.7479 12.6218 10.6658 10.0553 8.42043 10.0553ZM8.05452 13.7603C7.46797 13.7603 6.995 13.2779 6.995 12.6796C6.995 12.0815 7.47434 11.599 8.05452 11.599C8.64108 11.599 9.11421 12.0815 9.11421 12.6796C9.12057 13.2714 8.64108 13.7603 8.05452 13.7603Z" fill="#F37528"/>
<path fill-rule="evenodd" clip-rule="evenodd" d="M11.2256 8.04199V9.60765C11.2256 9.60765 11.9864 9.57672 11.9864 10.9505V14.9483H13.5902V10.5792C13.5839 10.5792 13.6536 8.04199 11.2256 8.04199Z" fill="#F37528"/>
<path fill-rule="evenodd" clip-rule="evenodd" d="M17.5797 10.0522C17.5797 10.0522 14.9114 10.0522 14.9114 12.6751C14.9114 12.6751 14.8251 15.2654 17.5797 15.2654C17.5797 15.2654 20.3097 15.2589 20.3097 12.6751C20.3097 12.6751 20.3958 10.0522 17.5797 10.0522ZM17.5797 13.7723C17.0067 13.7723 16.5444 13.2854 16.5444 12.6816C16.5444 12.0778 17.0067 11.5909 17.5797 11.5909C18.1528 11.5909 18.6151 12.0778 18.6151 12.6816C18.6151 13.2789 18.1528 13.7723 17.5797 13.7723Z" fill="#F37528"/>
<path fill-rule="evenodd" clip-rule="evenodd" d="M24.9325 10.2268V10.6972C24.9325 10.6972 24.4688 10.0528 23.5723 10.0528C23.5723 10.0528 21.2783 9.94966 21.2783 12.6432C21.2783 12.6432 21.2535 15.1498 23.5105 15.1498C23.5105 15.1498 24.4318 15.1885 24.9325 14.5054V14.8985C24.9325 14.8985 25.0438 16.1358 23.9 16.1358H23.5105V17.6307H24.1411C24.1411 17.6307 26.5092 17.6565 26.5092 14.9888V10.2203H24.9325V10.2268ZM23.9618 13.7515C23.3868 13.7515 22.9231 13.2682 22.9231 12.6689C22.9231 12.0698 23.3868 11.5864 23.9618 11.5864C24.5368 11.5864 25.0006 12.0698 25.0006 12.6689C25.0068 13.2618 24.5368 13.7515 23.9618 13.7515Z" fill="#F37528"/>
</g>
</g>
<defs>
<clipPath id="clip0_1144_2820">
<rect width="32" height="32" fill="white"/>
</clipPath>
</defs>
</svg>
