<svg width="122" height="23" viewBox="0 0 122 23" fill="none" xmlns="http://www.w3.org/2000/svg">
<path d="M8 21.1685V1.83149H16.5618C19.3489 1.83149 21.5156 2.45764 23.0618 3.70994C24.6081 4.94383 25.3813 6.65652 25.3813 8.84808C25.3813 10.2845 25.0281 11.5276 24.3218 12.5774C23.6154 13.6086 22.6132 14.4006 21.3151 14.953C20.017 15.5055 18.4707 15.7818 16.6763 15.7818H10.5771L12.6388 13.8204V21.1685H8ZM20.7424 21.1685L15.7314 14.1519H20.6852L25.7535 21.1685H20.7424ZM12.6388 14.3177L10.5771 12.2182H16.4186C17.8503 12.2182 18.9194 11.9236 19.6257 11.3343C20.332 10.7265 20.6852 9.8978 20.6852 8.84808C20.6852 7.77992 20.332 6.95119 19.6257 6.36189C18.9194 5.77254 17.8503 5.47791 16.4186 5.47791H10.5771L12.6388 3.35083V14.3177ZM38.506 21.5C36.9215 21.5 35.4516 21.2514 34.0963 20.7541C32.76 20.2569 31.5955 19.5571 30.6028 18.6547C29.6292 17.7523 28.8656 16.6934 28.3121 15.4779C27.7775 14.2624 27.5103 12.9365 27.5103 11.5C27.5103 10.0635 27.7775 8.73758 28.3121 7.52211C28.8656 6.30664 29.6388 5.24769 30.6315 4.3453C31.6241 3.44291 32.7886 2.74309 34.1249 2.24585C35.4611 1.74862 36.912 1.5 38.4774 1.5C40.0618 1.5 41.5126 1.74862 42.8298 2.24585C44.1661 2.74309 45.321 3.44291 46.2946 4.3453C47.2873 5.24769 48.0604 6.30664 48.614 7.52211C49.1675 8.71915 49.4444 10.0451 49.4444 11.5C49.4444 12.9365 49.1675 14.2716 48.614 15.5055C48.0604 16.721 47.2873 17.7799 46.2946 18.6823C45.321 19.5663 44.1661 20.2569 42.8298 20.7541C41.5126 21.2514 40.0713 21.5 38.506 21.5ZM38.4774 17.6878C39.3746 17.6878 40.1954 17.5405 40.9399 17.2459C41.7035 16.9512 42.3717 16.5276 42.9444 15.9751C43.5171 15.4227 43.9561 14.7689 44.2616 14.0138C44.5861 13.2587 44.7483 12.4208 44.7483 11.5C44.7483 10.5792 44.5861 9.74125 44.2616 8.9862C43.9561 8.23111 43.5171 7.57736 42.9444 7.02487C42.3907 6.47239 41.7321 6.04879 40.9686 5.75415C40.205 5.45948 39.3746 5.31215 38.4774 5.31215C37.5801 5.31215 36.7497 5.45948 35.9861 5.75415C35.2416 6.04879 34.583 6.47239 34.0103 7.02487C33.4377 7.57736 32.989 8.23111 32.6645 8.9862C32.3591 9.74125 32.2064 10.5792 32.2064 11.5C32.2064 12.4024 32.3591 13.2403 32.6645 14.0138C32.989 14.7689 33.4281 15.4227 33.9817 15.9751C34.5544 16.5276 35.2225 16.9512 35.9861 17.2459C36.7497 17.5405 37.5801 17.6878 38.4774 17.6878ZM61.5499 21.5C58.7052 21.5 56.4816 20.7357 54.878 19.2072C53.2745 17.6786 52.4727 15.4963 52.4727 12.6602V1.83149H57.1115V12.4945C57.1115 14.3361 57.5026 15.662 58.2855 16.4724C59.0681 17.2827 60.1656 17.6878 61.5785 17.6878C62.991 17.6878 64.0886 17.2827 64.8715 16.4724C65.6541 15.662 66.0455 14.3361 66.0455 12.4945V1.83149H70.6271V12.6602C70.6271 15.4963 69.8253 17.6786 68.2218 19.2072C66.6182 20.7357 64.3941 21.5 61.5499 21.5ZM74.9247 21.1685V1.83149H78.7618L90.5879 15.7541H88.7266V1.83149H93.3082V21.1685H89.4998L77.645 7.24587H79.5063V21.1685H74.9247ZM96.4756 21.1685V18.268L108.874 3.84806L109.447 5.47791H96.7047V1.83149H113.57V4.73204L101.2 19.1519L100.628 17.5221H114V21.1685H96.4756Z" fill="#F8F8F8"/>
</svg>
