<svg width="122" height="24" viewBox="0 0 122 24" fill="none" xmlns="http://www.w3.org/2000/svg">
<g clip-path="url(#clip0_1260_1663)">
<path d="M0 23.4541V0.395293H9.82102C13.018 0.395293 15.5034 1.14196 17.2771 2.63529C19.0508 4.10667 19.9376 6.149 19.9376 8.76237C19.9376 10.4753 19.5325 11.9577 18.7223 13.2094C17.9121 14.4392 16.7625 15.3835 15.2735 16.0424C13.7844 16.7012 12.0107 17.0306 9.95241 17.0306H2.95615L5.3211 14.6918V23.4541H0ZM14.6166 23.4541L8.86848 15.0871H14.5509L20.3646 23.4541H14.6166ZM5.3211 15.2847L2.95615 12.7812H9.65679C11.2991 12.7812 12.5253 12.4298 13.3356 11.7271C14.1457 11.0024 14.5509 10.0141 14.5509 8.76237C14.5509 7.48863 14.1457 6.50039 13.3356 5.79766C12.5253 5.09489 11.2991 4.74355 9.65679 4.74355H2.95615L5.3211 2.20706V15.2847ZM34.9927 23.8494C33.1752 23.8494 31.4891 23.553 29.9344 22.96C28.4016 22.3671 27.0658 21.5325 25.9272 20.4565C24.8104 19.3804 23.9345 18.1177 23.2995 16.6683C22.6863 15.2188 22.3798 13.6377 22.3798 11.9247C22.3798 10.2118 22.6863 8.6306 23.2995 7.18119C23.9345 5.73178 24.8213 4.46902 25.96 3.39294C27.0987 2.31686 28.4344 1.48235 29.9673 0.889409C31.5 0.29647 33.1643 0 34.9599 0C36.7773 0 38.4416 0.29647 39.9525 0.889409C41.4853 1.48235 42.8101 2.31686 43.9269 3.39294C45.0655 4.46902 45.9524 5.73178 46.5874 7.18119C47.2222 8.60863 47.5399 10.1898 47.5399 11.9247C47.5399 13.6377 47.2222 15.2298 46.5874 16.7012C45.9524 18.1506 45.0655 19.4133 43.9269 20.4894C42.8101 21.5435 41.4853 22.3671 39.9525 22.96C38.4416 23.553 36.7883 23.8494 34.9927 23.8494ZM34.9599 19.3035C35.989 19.3035 36.9306 19.1278 37.7846 18.7765C38.6605 18.4251 39.427 17.92 40.0839 17.2612C40.7408 16.6024 41.2444 15.8227 41.5948 14.9224C41.967 14.0219 42.1532 13.0227 42.1532 11.9247C42.1532 10.8267 41.967 9.82745 41.5948 8.92707C41.2444 8.02665 40.7408 7.24708 40.0839 6.58825C39.4488 5.92943 38.6934 5.4243 37.8175 5.07296C36.9416 4.72157 35.989 4.54588 34.9599 4.54588C33.9307 4.54588 32.9781 4.72157 32.1023 5.07296C31.2483 5.4243 30.4928 5.92943 29.8359 6.58825C29.1789 7.24708 28.6643 8.02665 28.2921 8.92707C27.9417 9.82745 27.7666 10.8267 27.7666 11.9247C27.7666 13.0008 27.9417 14 28.2921 14.9224C28.6643 15.8227 29.168 16.6024 29.803 17.2612C30.4599 17.92 31.2263 18.4251 32.1023 18.7765C32.9781 19.1278 33.9307 19.3035 34.9599 19.3035ZM61.4258 23.8494C58.1628 23.8494 55.6121 22.938 53.7727 21.1153C51.9333 19.2925 51.0136 16.6902 51.0136 13.3083V0.395293H56.3347V13.1106C56.3347 15.3067 56.7833 16.8878 57.6814 17.8541C58.579 18.8204 59.838 19.3035 61.4587 19.3035C63.079 19.3035 64.3379 18.8204 65.236 17.8541C66.1336 16.8878 66.5827 15.3067 66.5827 13.1106V0.395293H71.8381V13.3083C71.8381 16.6902 70.9184 19.2925 69.079 21.1153C67.2396 22.938 64.6884 23.8494 61.4258 23.8494ZM76.7678 23.4541V0.395293H81.1692L94.7347 16.9977H92.5997V0.395293H97.8551V23.4541H93.4865L79.8882 6.85178H82.0232V23.4541H76.7678ZM101.488 23.4541V19.9953L115.711 2.8L116.368 4.74355H101.751V0.395293H121.097V3.85412L106.908 21.0494L106.251 19.1059H121.59V23.4541H101.488Z" fill="#1C1C1C"/>
</g>
<defs>
<clipPath id="clip0_1260_1663">
<rect width="122" height="24" fill="white"/>
</clipPath>
</defs>
</svg>
